# xmcd
#
# Track frame offsets: 
#        150
#        15405
#        31228
#        43788
#        58622
#        72521
#        83245
#        95721
#        108029
#        122332
#        136437
#        148918
#        160836
#        173833
#        188366
#        201184
#        213948
#        227058
#        239603
#        253001
#        268369
#        280709
#        296749
#
# Disc length: 4145 seconds
#
# Revision: 0
# Processed by: cddbd v1.5.2PL0 Copyright (c) Steve Scherf et al.
# Submitted via: ExactAudioCopy v0.99pb3
#
DISCID=52102f17
DTITLE=lulu - The Atco Sessions
DYEAR=1969
DGENRE=
TTITLE0=MARLEY PURT DRIVE
TTITLE1=IN THE MORNING
TTITLE2=PEOPLE IN LOVE
TTITLE3=AFTER ALL (I LIVE MY LIFE)
TTITLE4=FEELIN' ALRIGHT
TTITLE5=DIRTY OLD MAN
TTITLE6=OH ME OH MY (I'M A FOOL FOR YOU BABY)
TTITLE7=IS THAT YOU LOVE
TTITLE8=MR. BOJANGLES
TTITLE9=WHERE'S EDDIE
TTITLE10=SWEEP AROUND YOUR OWN BACK DOOR
TTITLE11=GOOD DAY SUNSHINE
TTITLE12=AFTER THE FEELING IS GONE
TTITLE13=I DON'T CARE ANYMORE
TTITLE14=(DON'T GO) PLEASE STAY
TTITLE15=MELODY FAIR
TTITLE16=TAKE GOOD CARE OF YOURSELF
TTITLE17=VINE STREET
TTITLE18=MOVE TO MY RHYTHM
TTITLE19=TO THE OTHER WOMAN (I'M THE OTHER WOMAN)
TTITLE20=HUM A SONG (FROM YOUR HEART)
TTITLE21=SWEET MEMORIES
TTITLE22=SAVED
EXTD=
EXTT0=
EXTT1=
EXTT2=
EXTT3=
EXTT4=
EXTT5=
EXTT6=
EXTT7=
EXTT8=
EXTT9=
EXTT10=
EXTT11=
EXTT12=
EXTT13=
EXTT14=
EXTT15=
EXTT16=
EXTT17=
EXTT18=
EXTT19=
EXTT20=
EXTT21=
EXTT22=
PLAYORDER=
